<svg width="294" height="261" xmlns="http://www.w3.org/2000/svg">
 <g>
  <g id="svg_1">
   <g id="svg_29">
    <g id="svg_5" transform="matrix(5.221863901513245,0,0,5.221863901513245,0,0) ">
     <g stroke="null" id="svg_6">
      <path stroke="null" d="m48.07145,34.76174c-1.835,1.153 -3.679,2.291 -5.518,3.436l-4.475,-6.906c-0.058,-0.068 -0.115,-0.131 -0.176,-0.189c-1.033,-1.784 -2.177,-3.493 -3.39,-5.154c2.717,0.106 5.432,0.06 8.151,-0.172c2.809,-0.24 2.832,-4.646 0,-4.406c-4.09,0.349 -8.166,0.288 -12.25,-0.096c-0.332,-0.031 -0.623,0.003 -0.877,0.086c-1.054,-0.031 -2.147,0.371 -2.841,1.068c-1.502,1.519 -1.191,3.564 0.03,5.094c1.885,2.355 3.604,4.837 5.1,7.458c-2.242,0.638 -4.482,1.274 -6.726,1.91c-0.588,0.169 -0.996,0.498 -1.245,0.903c-0.063,0.074 -0.125,0.153 -0.183,0.242c-1.671,2.53 -3.157,5.162 -4.405,7.928c-1.16,2.568 2.636,4.81 3.803,2.224c1.143,-2.528 2.49,-4.94 3.989,-7.272c3.34,-0.949 6.683,-1.898 10.022,-2.85c0.166,-0.047 0.317,-0.107 0.455,-0.179c0.918,1.368 1.752,2.788 2.523,4.257c0.22,0.42 0.471,0.617 0.73,0.663c0.633,0.435 1.481,0.557 2.315,0.03c2.449,-1.539 4.921,-3.051 7.37,-4.59c2.317,-1.455 -0.093,-4.936 -2.402,-3.485z" fill="#ffffff" id="svg_7"/>
      <circle stroke="null" cx="24.149451" cy="18.78374" r="3.303" fill="#ffffff" id="svg_8"/>
      <path stroke="null" d="m22.07045,34.62974c0.633,0.438 1.479,0.559 2.315,0.033c1.522,-0.959 3.051,-1.904 4.581,-2.854c-0.779,-1.147 -1.613,-2.295 -2.501,-3.429c-0.879,0.547 -1.758,1.096 -2.635,1.644l-4.477,-6.908c-0.058,-0.069 -0.115,-0.131 -0.176,-0.188c-1.033,-1.787 -2.176,-3.494 -3.389,-5.154c1.454,0.056 2.908,0.064 4.364,0.028c0.097,-0.44 0.264,-0.865 0.507,-1.259c0.573,-0.933 1.474,-1.586 2.539,-1.84c0.313,-0.074 0.633,-0.111 0.953,-0.111c0.68,0 1.326,0.167 1.897,0.465c-0.063,-1.04 -0.762,-1.978 -2.109,-1.862c-4.089,0.349 -8.166,0.287 -12.249,-0.098c-0.335,-0.031 -0.624,0.006 -0.878,0.088c-1.052,-0.031 -2.148,0.369 -2.841,1.068c-1.502,1.517 -1.191,3.562 0.031,5.092c1.884,2.356 3.603,4.838 5.099,7.457c-2.241,0.639 -4.482,1.275 -6.726,1.912c-0.588,0.166 -0.994,0.496 -1.243,0.902c-0.064,0.074 -0.125,0.152 -0.183,0.24c-1.672,2.534 -3.157,5.163 -4.406,7.932c-1.16,2.566 2.636,4.808 3.803,2.224c1.143,-2.53 2.489,-4.942 3.99,-7.273c3.34,-0.95 6.681,-1.899 10.022,-2.85c0.166,-0.048 0.317,-0.108 0.456,-0.179c0.917,1.365 1.752,2.787 2.523,4.256c0.221,0.423 0.471,0.619 0.733,0.664z" fill="#ffffff" id="svg_9"/>
      <circle cx="5.424451" cy="10.60974" r="3.304" fill="#ffffff" id="svg_10"/>
      <path stroke="null" d="m52.29845,19.77074c-1.834,1.152 -3.68,2.292 -5.519,3.436l-4.476,-6.907c-0.059,-0.069 -0.116,-0.131 -0.176,-0.187c-1.033,-1.788 -2.176,-3.495 -3.391,-5.155c2.717,0.104 5.432,0.058 8.151,-0.174c2.81,-0.239 2.832,-4.646 0,-4.404c-4.089,0.349 -8.166,0.286 -12.251,-0.097c-0.332,-0.032 -0.622,0.004 -0.876,0.087c-1.052,-0.032 -2.147,0.369 -2.841,1.068c-1.502,1.519 -1.19,3.563 0.031,5.093c1.883,2.357 3.604,4.837 5.099,7.458c-0.747,0.212 -1.495,0.425 -2.242,0.639c3.017,0.146 5.95,0.1 8.785,-0.141c0.098,-0.009 0.194,-0.012 0.286,-0.012c1.514,0 2.617,1.099 2.684,2.675c0.051,1.188 -0.562,2.491 -1.792,3.05c0.177,0.316 0.349,0.632 0.517,0.953c0.222,0.42 0.471,0.617 0.729,0.663c0.635,0.436 1.481,0.557 2.315,0.031c2.451,-1.54 4.922,-3.049 7.373,-4.588c2.315,-1.457 -0.096,-4.941 -2.406,-3.488z" fill="#ffffff" id="svg_11"/>
      <circle stroke="null" cx="28.376451" cy="3.79174" r="3.303" fill="#ffffff" id="svg_12"/>
     </g>
    </g>
    <g id="svg_14" transform="matrix(5.221863901513245,0,0,5.221863901513245,0,0) "/>
    <g id="svg_15" transform="matrix(5.221863901513245,0,0,5.221863901513245,0,0) "/>
    <g id="svg_16" transform="matrix(5.221863901513245,0,0,5.221863901513245,0,0) "/>
    <g id="svg_17" transform="matrix(5.221863901513245,0,0,5.221863901513245,0,0) "/>
    <g id="svg_18" transform="matrix(5.221863901513245,0,0,5.221863901513245,0,0) "/>
    <g id="svg_19" transform="matrix(5.221863901513245,0,0,5.221863901513245,0,0) "/>
    <g id="svg_20" transform="matrix(5.221863901513245,0,0,5.221863901513245,0,0) "/>
    <g id="svg_21" transform="matrix(5.221863901513245,0,0,5.221863901513245,0,0) "/>
    <g id="svg_22" transform="matrix(5.221863901513245,0,0,5.221863901513245,0,0) "/>
    <g id="svg_23" transform="matrix(5.221863901513245,0,0,5.221863901513245,0,0) "/>
    <g id="svg_24" transform="matrix(5.221863901513245,0,0,5.221863901513245,0,0) "/>
    <g id="svg_25" transform="matrix(5.221863901513245,0,0,5.221863901513245,0,0) "/>
    <g id="svg_26" transform="matrix(5.221863901513245,0,0,5.221863901513245,0,0) "/>
    <g id="svg_27" transform="matrix(5.221863901513245,0,0,5.221863901513245,0,0) "/>
    <g id="svg_28" transform="matrix(5.221863901513245,0,0,5.221863901513245,0,0) "/>
   </g>
  </g>
 </g>
</svg>